<svg width="600" height="700" viewBox="0 0 600 700" fill="none" xmlns="http://www.w3.org/2000/svg">
  <path d="M250 50 L270 40 L300 45 L320 60 L330 80 L350 90 L370 85 L400 100 L420 120 L430 150 L440 180 L450 200 L460 230 L455 260 L465 290 L475 310 L485 330 L495 350 L500 380 L495 410 L485 440 L470 470 L450 500 L420 530 L390 560 L360 590 L330 620 L300 650 L270 670 L240 685 L210 670 L180 650 L150 620 L120 590 L100 560 L80 530 L70 500 L65 470 L60 440 L65 410 L75 380 L85 350 L100 320 L120 290 L130 260 L140 230 L130 200 L140 170 L150 140 L170 120 L200 100 L220 80 L230 60 Z" fill="#B89648" fill-opacity="0.2" stroke="#B89648" stroke-width="2"/>
</svg>
